<svg width="144" height="44" viewBox="0 0 144 44" fill="none" xmlns="http://www.w3.org/2000/svg">
<rect width="144" height="44" rx="22" fill="#C8FFBD"/>
<path fill-rule="evenodd" clip-rule="evenodd" d="M32 31C33.1819 31 34.3522 30.7672 35.4442 30.3149C36.5361 29.8626 37.5282 29.1997 38.364 28.364C39.1997 27.5282 39.8626 26.5361 40.3149 25.4442C40.7672 24.3522 41 23.1819 41 22C41 20.8181 40.7672 19.6478 40.3149 18.5558C39.8626 17.4639 39.1997 16.4718 38.364 15.636C37.5282 14.8003 36.5361 14.1374 35.4442 13.6851C34.3522 13.2328 33.1819 13 32 13C29.6131 13 27.3239 13.9482 25.636 15.636C23.9482 17.3239 23 19.6131 23 22C23 24.3869 23.9482 26.6761 25.636 28.364C27.3239 30.0518 29.6131 31 32 31ZM31.768 25.64L36.768 19.64L35.232 18.36L30.932 23.519L28.707 21.293L27.293 22.707L30.293 25.707L31.067 26.481L31.768 25.64Z" fill="#1BA400"/>
<path d="M60.958 24.638H57.066L56.422 26.5H54.364L57.878 16.714H60.16L63.674 26.5H61.602L60.958 24.638ZM60.426 23.07L59.012 18.982L57.598 23.07H60.426ZM64.4835 22.622C64.4835 21.8193 64.6468 21.1193 64.9735 20.522C65.3002 19.9153 65.7528 19.4487 66.3315 19.122C66.9102 18.786 67.5728 18.618 68.3195 18.618C69.2808 18.618 70.0742 18.8607 70.6995 19.346C71.3342 19.822 71.7588 20.494 71.9735 21.362H69.8595C69.7475 21.026 69.5562 20.7647 69.2855 20.578C69.0242 20.382 68.6975 20.284 68.3055 20.284C67.7455 20.284 67.3022 20.4893 66.9755 20.9C66.6488 21.3013 66.4855 21.8753 66.4855 22.622C66.4855 23.3593 66.6488 23.9333 66.9755 24.344C67.3022 24.7453 67.7455 24.946 68.3055 24.946C69.0988 24.946 69.6168 24.5913 69.8595 23.882H71.9735C71.7588 24.722 71.3342 25.3893 70.6995 25.884C70.0648 26.3787 69.2715 26.626 68.3195 26.626C67.5728 26.626 66.9102 26.4627 66.3315 26.136C65.7528 25.8 65.3002 25.3333 64.9735 24.736C64.6468 24.1293 64.4835 23.4247 64.4835 22.622ZM75.6914 20.354V24.106C75.6914 24.3673 75.752 24.5587 75.8734 24.68C76.004 24.792 76.2187 24.848 76.5174 24.848H77.4274V26.5H76.1954C74.5434 26.5 73.7174 25.6973 73.7174 24.092V20.354H72.7934V18.744H73.7174V16.826H75.6914V18.744H77.4274V20.354H75.6914ZM79.8311 17.82C79.4858 17.82 79.1964 17.7127 78.9631 17.498C78.7391 17.274 78.6271 16.9987 78.6271 16.672C78.6271 16.3453 78.7391 16.0747 78.9631 15.86C79.1964 15.636 79.4858 15.524 79.8311 15.524C80.1764 15.524 80.4611 15.636 80.6851 15.86C80.9184 16.0747 81.0351 16.3453 81.0351 16.672C81.0351 16.9987 80.9184 17.274 80.6851 17.498C80.4611 17.7127 80.1764 17.82 79.8311 17.82ZM80.7971 18.744V26.5H78.8371V18.744H80.7971ZM85.9676 24.694L87.9276 18.744H90.0136L87.1436 26.5H84.7636L81.9076 18.744H84.0076L85.9676 24.694ZM90.6104 22.594C90.6104 21.81 90.7644 21.1147 91.0724 20.508C91.3898 19.9013 91.8144 19.4347 92.3464 19.108C92.8878 18.7813 93.4898 18.618 94.1524 18.618C94.7311 18.618 95.2351 18.7347 95.6644 18.968C96.1031 19.2013 96.4531 19.4953 96.7144 19.85V18.744H98.6884V26.5H96.7144V25.366C96.4624 25.73 96.1124 26.0333 95.6644 26.276C95.2258 26.5093 94.7171 26.626 94.1384 26.626C93.4851 26.626 92.8878 26.458 92.3464 26.122C91.8144 25.786 91.3898 25.3147 91.0724 24.708C90.7644 24.092 90.6104 23.3873 90.6104 22.594ZM96.7144 22.622C96.7144 22.146 96.6211 21.74 96.4344 21.404C96.2478 21.0587 95.9958 20.7973 95.6784 20.62C95.3611 20.4333 95.0204 20.34 94.6564 20.34C94.2924 20.34 93.9564 20.4287 93.6484 20.606C93.3404 20.7833 93.0884 21.0447 92.8924 21.39C92.7058 21.726 92.6124 22.1273 92.6124 22.594C92.6124 23.0607 92.7058 23.4713 92.8924 23.826C93.0884 24.1713 93.3404 24.4373 93.6484 24.624C93.9658 24.8107 94.3018 24.904 94.6564 24.904C95.0204 24.904 95.3611 24.8153 95.6784 24.638C95.9958 24.4513 96.2478 24.19 96.4344 23.854C96.6211 23.5087 96.7144 23.098 96.7144 22.622ZM102.885 20.354V24.106C102.885 24.3673 102.945 24.5587 103.067 24.68C103.197 24.792 103.412 24.848 103.711 24.848H104.621V26.5H103.389C101.737 26.5 100.911 25.6973 100.911 24.092V20.354H99.9867V18.744H100.911V16.826H102.885V18.744H104.621V20.354H102.885ZM113.24 22.454C113.24 22.734 113.222 22.986 113.184 23.21H107.514C107.561 23.77 107.757 24.2087 108.102 24.526C108.448 24.8433 108.872 25.002 109.376 25.002C110.104 25.002 110.622 24.6893 110.93 24.064H113.044C112.82 24.8107 112.391 25.4267 111.756 25.912C111.122 26.388 110.342 26.626 109.418 26.626C108.672 26.626 108 26.4627 107.402 26.136C106.814 25.8 106.352 25.3287 106.016 24.722C105.69 24.1153 105.526 23.4153 105.526 22.622C105.526 21.8193 105.69 21.1147 106.016 20.508C106.343 19.9013 106.8 19.4347 107.388 19.108C107.976 18.7813 108.653 18.618 109.418 18.618C110.156 18.618 110.814 18.7767 111.392 19.094C111.98 19.4113 112.433 19.864 112.75 20.452C113.077 21.0307 113.24 21.698 113.24 22.454ZM111.21 21.894C111.201 21.39 111.019 20.9887 110.664 20.69C110.31 20.382 109.876 20.228 109.362 20.228C108.877 20.228 108.466 20.3773 108.13 20.676C107.804 20.9653 107.603 21.3713 107.528 21.894H111.21ZM114.167 22.594C114.167 21.81 114.321 21.1147 114.629 20.508C114.946 19.9013 115.376 19.4347 115.917 19.108C116.458 18.7813 117.06 18.618 117.723 18.618C118.227 18.618 118.708 18.73 119.165 18.954C119.622 19.1687 119.986 19.458 120.257 19.822V16.14H122.245V26.5H120.257V25.352C120.014 25.7347 119.674 26.0427 119.235 26.276C118.796 26.5093 118.288 26.626 117.709 26.626C117.056 26.626 116.458 26.458 115.917 26.122C115.376 25.786 114.946 25.3147 114.629 24.708C114.321 24.092 114.167 23.3873 114.167 22.594ZM120.271 22.622C120.271 22.146 120.178 21.74 119.991 21.404C119.804 21.0587 119.552 20.7973 119.235 20.62C118.918 20.4333 118.577 20.34 118.213 20.34C117.849 20.34 117.513 20.4287 117.205 20.606C116.897 20.7833 116.645 21.0447 116.449 21.39C116.262 21.726 116.169 22.1273 116.169 22.594C116.169 23.0607 116.262 23.4713 116.449 23.826C116.645 24.1713 116.897 24.4373 117.205 24.624C117.522 24.8107 117.858 24.904 118.213 24.904C118.577 24.904 118.918 24.8153 119.235 24.638C119.552 24.4513 119.804 24.19 119.991 23.854C120.178 23.5087 120.271 23.098 120.271 22.622Z" fill="#1BA400"/>
</svg>
